<?xml version="1.0" encoding="UTF-8"?>
<svg width="40" height="40" viewBox="0 0 40 40" fill="none" xmlns="http://www.w3.org/2000/svg">
  <!-- Background circle -->
  <circle cx="20" cy="20" r="18" fill="#3B82F6" stroke="white" stroke-width="2"/>
  
  <!-- Barber pole symbol -->
  <path d="M16 12h8M16 16h8M16 20h8M16 24h8M16 28h8" stroke="white" stroke-width="2" stroke-linecap="round"/>
  
  <!-- Scissors symbol -->
  <path d="M18 14c0 1.5-1.5 3-3 3s-3-1.5-3-3 1.5-3 3-3 3 1.5 3 3zM28 14c0 1.5-1.5 3-3 3s-3-1.5-3-3 1.5-3 3-3 3 1.5 3 3z" fill="white"/>
  
  <!-- Location pin point -->
  <circle cx="20" cy="36" r="2" fill="#3B82F6"/>
  <path d="M20 38v2" stroke="#3B82F6" stroke-width="2"/>
</svg> 