<?xml version="1.0" encoding="UTF-8"?>
<svg width="24px" height="24px" viewBox="0 0 24 24" version="1.1" xmlns="http://www.w3.org/2000/svg">
    <path d="M24,12.073 C24,5.40541176 18.6267652,0 12,0 C5.37323477,0 0,5.40541176 0,12.073 C0,18.0992647 4.38823477,23.0934118 10.125,24 L10.125,15.563647 L7.07794118,15.563647 L7.07794118,12.073 L10.125,12.073 L10.125,9.41348529 C10.125,6.38791176 11.9166176,4.71632353 14.6576471,4.71632353 C15.9705882,4.71632353 17.3441176,4.95197059 17.3441176,4.95197059 L17.3441176,7.92233824 L15.8305882,7.92233824 C14.34,7.92233824 13.875,8.85116176 13.875,9.80397059 L13.875,12.073 L17.2105882,12.073 L16.6714706,15.563647 L13.875,15.563647 L13.875,24 C19.6117652,23.0934118 24,18.0992647 24,12.073" fill="#1877F2"/>
</svg> 